# xmcd CD database file
#
# Track frame offsets:
#	150
#	12375
#	27842
#	42325
#	55312
#	65197
#	82522
#	99570
#	114502
#	128607
#	140427
#	151217
#	163767
#	178720
#	192165
#	207025
#	225120
#	234775
#	248125
#	265290
#	279112
#	290150
#	301130
#	315057
#
# Disc length: 4385 seconds
#
# Revision: 2
# Processed by: cddbd v1.5.2PL0 Copyright (c) Steve Scherf et al.
# Submitted via: CDex 1.70beta2
#
DISCID=32111f18
DTITLE=Various Artist - Dancemania SUMMERS2
DYEAR=1999
DGENRE=Dance
TTITLE0=HOUSEMASTER/DON'T STOP TILL YOU GET ENOUGH
TTITLE1=X-TREME/WONDERLAND (UKS MIX)
TTITLE2=RED HARDIN/POR UN CAFE POR UN HELAO
TTITLE3=FREAKKOUT/SUNSHINE DAY
TTITLE4=DIXIE'S GANG/EL RITMO TROPICAL (ULTRA VIBE SCORCCIO MIX)
TTITLE5=SUNSHINE STATE feat.DAZ/ROOTS (FEEL TOO HIGH)
TTITLE6=DJ MIKO/WHAT'S UP
TTITLE7=TERRORVISION/TEQUILA (MINT ROYALE REMIX)
TTITLE8=UB40/(I CAN'T HELP) FALLING IN LOVE WITH YOU
TTITLE9=N-TRANCE/STAYIN' ALIVE
TTITLE10=SLICK/MIAMI
TTITLE11=JOINIT/LET THE MUSIC PLAY medley with LET IT PLAY
TTITLE12=ARTHUR BAKER/BREAKER'S REVENGE (FREESTYLERS REMIX)
TTITLE13=J and B/MOONLIGHT (WORLD CLUB MIX)
TTITLE14=JULIET ROBERTS/BAD GIRLS
TTITLE15=KATHY SLEDGE/ANOTHER STAR
TTITLE16=KOKO AND LEROY/JARZINHO
TTITLE17=THE HEARTISTS/BELO HORIZONTI (MORALES MIX)
TTITLE18=JAMESTOWN feat.JOCELYN BROWN/I BELIEVE (SCORCCIO HOT MIX)
TTITLE19=TRICKSTER/STOMP (LISA MARIE VOCAL EXPERIENCE)
TTITLE20=BEDLAM/DA-FORCE
TTITLE21=AQUARIUS/KEEP ON
TTITLE22=ULTIMATE HEIGHTS/TOTAL RECALL
TTITLE23=X-RATED/EVERYBODY DANCE (SCORCCIO HOT MIX)
EXTD=YEAR: 1999
EXTT0=
EXTT1=
EXTT2=
EXTT3=
EXTT4=
EXTT5=
EXTT6=
EXTT7=
EXTT8=
EXTT9=
EXTT10=
EXTT11=
EXTT12=
EXTT13=
EXTT14=
EXTT15=
EXTT16=
EXTT17=
EXTT18=
EXTT19=
EXTT20=
EXTT21=
EXTT22=
EXTT23=
PLAYORDER=
